<?xml version="1.0" encoding="UTF-8"?>
<svg width="12" height="12" viewBox="0 0 32 32" version="1.1" xmlns="http://www.w3.org/2000/svg" xmlns:xlink="http://www.w3.org/1999/xlink">
    <g stroke="none" stroke-width="1" fill="none" fill-rule="evenodd">
        <path d="M5.5,4.5 L26.5,4.5" stroke="#000000" stroke-width="5" stroke-linecap="round"></path>
        <path d="M25,9 C26.1045695,9 27,9.8954305 27,11 L27,28 C27,29.1045695 26.1045695,30 25,30 L7,30 C5.8954305,30 5,29.1045695 5,28 L5,11 C5,9.8954305 5.8954305,9 7,9 L25,9 Z M11.5,12 C10.1745166,12 9.08996133,13.0315359 9.00531768,14.3356243 L9,14.5 L9,24.5 C9,25.8807119 10.1192881,27 11.5,27 C12.8254834,27 13.9100387,25.9684641 13.9946823,24.6643757 L14,24.5 L14,14.5 C14,13.1192881 12.8807119,12 11.5,12 Z M20.5,12 C19.1192881,12 18,13.1192881 18,14.5 L18,14.5 L18,24.5 C18,25.8807119 19.1192881,27 20.5,27 C21.8807119,27 23,25.8807119 23,24.5 L23,24.5 L23,14.5 C23,13.1192881 21.8807119,12 20.5,12 Z" fill="#000000"></path>
    </g>
</svg>