<?xml version="1.0" encoding="UTF-8"?>
<svg width="32" height="32" viewBox="0 0 32 32" version="1.1" xmlns="http://www.w3.org/2000/svg" xmlns:xlink="http://www.w3.org/1999/xlink">
    <g stroke="none" stroke-width="1" fill="none" fill-rule="evenodd">
        <path d="M5.5,5.5 L26.5,5.5" stroke="#000000" stroke-width="3" stroke-linecap="round"></path>
        <path d="M25,8 C25.5522847,8 26,8.44771525 26,9 L26,28 C26,28.5522847 25.5522847,29 25,29 L7,29 C6.44771525,29 6,28.5522847 6,28 L6,9 C6,8.44771525 6.44771525,8 7,8 L25,8 Z M11,11 C10.4871642,11 10.0644928,11.3860402 10.0067277,11.8833789 L10,12 L10,25 C10,25.5522847 10.4477153,26 11,26 C11.5128358,26 11.9355072,25.6139598 11.9932723,25.1166211 L12,25 L12,12 C12,11.4477153 11.5522847,11 11,11 Z M16,11 C15.4871642,11 15.0644928,11.3860402 15.0067277,11.8833789 L15,12 L15,25 C15,25.5522847 15.4477153,26 16,26 C16.5128358,26 16.9355072,25.6139598 16.9932723,25.1166211 L17,25 L17,12 C17,11.4477153 16.5522847,11 16,11 Z M21,11 C20.4477153,11 20,11.4477153 20,12 L20,12 L20,25 C20,25.5522847 20.4477153,26 21,26 C21.5522847,26 22,25.5522847 22,25 L22,25 L22,12 C22,11.4477153 21.5522847,11 21,11 Z" fill="#000000"></path>
    </g>
</svg>